<?xml version="1.0" encoding="UTF-8" standalone="no"?>
<svg
   xmlns:dc="http://purl.org/dc/elements/1.1/"
   xmlns:cc="http://creativecommons.org/ns#"
   xmlns:rdf="http://www.w3.org/1999/02/22-rdf-syntax-ns#"
   xmlns:svg="http://www.w3.org/2000/svg"
   xmlns="http://www.w3.org/2000/svg"
   xmlns:sodipodi="http://sodipodi.sourceforge.net/DTD/sodipodi-0.dtd"
   xmlns:inkscape="http://www.inkscape.org/namespaces/inkscape"
   width="85.507057mm"
   height="89.533096mm"
   viewBox="0 0 85.507057 89.533096"
   version="1.1"
   id="svg8"
   inkscape:version="1.0.1 (c497b03c, 2020-09-10)"
   sodipodi:docname="mfnew_lowkey.svg">
  <defs
     id="defs2">
    <inkscape:perspective
       sodipodi:type="inkscape:persp3d"
       inkscape:vp_x="0 : -58.96691 : 1"
       inkscape:vp_y="0 : 1000 : 0"
       inkscape:vp_z="210.00001 : -58.96691 : 1"
       inkscape:persp3d-origin="105.00001 : -108.46691 : 1"
       id="perspective847" />
  </defs>
  <sodipodi:namedview
     id="base"
     pagecolor="#ffffff"
     bordercolor="#666666"
     borderopacity="1.0"
     inkscape:pageopacity="0.0"
     inkscape:pageshadow="2"
     inkscape:zoom="0.30944089"
     inkscape:cx="476.99812"
     inkscape:cy="355.45687"
     inkscape:document-units="px"
     inkscape:current-layer="layer3"
     inkscape:document-rotation="0"
     showgrid="false"
     inkscape:window-width="1252"
     inkscape:window-height="762"
     inkscape:window-x="131"
     inkscape:window-y="25"
     inkscape:window-maximized="0"
     fit-margin-top="0"
     fit-margin-left="0"
     fit-margin-right="0"
     fit-margin-bottom="0" />
  <metadata
     id="metadata5">
    <rdf:RDF>
      <cc:Work
         rdf:about="">
        <dc:format>image/svg+xml</dc:format>
        <dc:type
           rdf:resource="http://purl.org/dc/dcmitype/StillImage" />
        <dc:title></dc:title>
      </cc:Work>
    </rdf:RDF>
  </metadata>
  <g
     inkscape:groupmode="layer"
     id="layer2"
     inkscape:label="background"
     transform="translate(-44.660579,-49.26053)" />
  <g
     inkscape:label="Layer 1"
     inkscape:groupmode="layer"
     id="layer1"
     transform="translate(-44.660579,-49.26053)">
    <path
       id="path873"
       style="fill:#000000;stroke:#000000;stroke-width:0.264583"
       cx="66.619759"
       cy="88.317024"
       r="0.22896722"
       d="" />
    <path
       id="path1048"
       style="fill:#e8e8e8;fill-opacity:0.834677;fill-rule:evenodd;stroke:none;stroke-width:0.999999px;stroke-linecap:butt;stroke-linejoin:miter;stroke-opacity:1"
       d="m 336.94727,186.18359 c -0.30339,-0.005 -0.60529,-9e-4 -0.90821,0.0117 -9.69342,0.40389 -15.34813,5.65364 -17.77148,8.88477 -2.42335,3.23114 -27.06055,47.25586 -27.06055,47.25586 0,0 -2.82691,6.46141 -1.61523,8.88476 l 1.21093,2.42383 c 0,0 -4.84644,-3.23066 -15.34765,2.42383 -10.5012,5.65449 -17.36719,14.53906 -17.36719,14.53906 l -78.75977,100.57031 c 0,0 -11.18765,12.39661 -10.50195,29.08008 0.43252,10.52334 8.88672,16.1543 8.88672,16.1543 l 63.57617,47.73437 c -6.25281,4.75313 -10.5766,11.48756 -10.71679,20.97266 0.6575,9.98461 8.98618,20.02714 31.76757,16.30469 4.20722,-0.68746 12.69586,-2.44604 21.49219,-5.33594 l 20.29883,15.24023 c 0,0 24.44532,19.59894 36.1582,11.11719 11.71288,-8.48171 22.00196,-45.04492 22.00196,-45.04492 L 481.43945,361.08008 c 0,0 10.09804,-10.0984 10.50196,-20.59961 0.40388,-10.5012 -3.23257,-16.96229 -7.27149,-22.21289 -4.03891,-5.2506 -128.83984,-123.5918 -128.83984,-123.5918 0,0 -9.47781,-8.3382 -18.88281,-8.49219 z m 49.23046,137.38282 26.04883,12.79687 -70.3789,51.64258 z m -94.60156,23.76367 -27.42187,53.01367 -18.28125,-8.22461 z"
       transform="scale(0.26458333)" />
  </g>
  <g
     inkscape:groupmode="layer"
     id="layer3"
     inkscape:label="Logo"
     transform="translate(-44.660579,-49.26053)">
    <path
       style="opacity:0.99;fill:#92d1fe;fill-opacity:1;stroke:#92d1fe;stroke-width:5;stroke-linejoin:round;stroke-miterlimit:4;stroke-dasharray:none;stroke-dashoffset:0;stroke-opacity:1"
       d="m 81.598751,131.08821 c -2.96312,-2.26359 -24.396112,-18.24519 -28.105881,-20.95726 -1.734415,-1.26797 -3.412966,-2.60839 -3.730117,-2.97872 -0.750796,-0.8767 -1.056878,-2.27454 -0.760466,-3.47306 0.22334,-0.90306 0.575091,-1.40613 6.186414,-8.847781 3.2723,-4.33966 8.22549,-10.94141 11.0071,-14.67057 5.34065,-7.159951 5.63206,-7.485773 7.64564,-8.548335 1.73262,-0.914313 2.67639,-0.950021 6.58036,-0.248988 3.9955,0.717477 7.3487,1.494726 7.876,1.825618 0.18913,0.118678 0.39592,0.442794 0.45953,0.720261 0.11356,0.495212 0.0625,0.557557 -2.77688,3.389955 -7.72899,7.710059 -17.95633,17.748939 -21.76179,21.360799 -2.72542,2.586751 -4.336385,4.235811 -4.521315,4.628261 -0.646743,1.37242 -0.36565,2.32319 0.92656,3.13407 0.458805,0.2879 3.212345,1.45151 6.118965,2.58579 8.00775,3.12495 16.06508,6.20882 19.1967,7.3474 3.0104,1.09448 5.21916,2.29896 6.0004,3.27214 0.69811,0.86962 1.14537,1.96005 1.12792,2.74986 -0.0305,1.38053 -2.92809,9.48939 -3.85337,10.78366 -0.57989,0.81114 -1.32033,1.04182 -2.50386,0.78003 -1.45319,-0.32144 -2.73261,-1.03552 -5.11191,-2.85313 z"
       id="path1024" />
    <path
       style="opacity:0.99;fill:#0073aa;fill-opacity:1;stroke:#0073aa;stroke-width:5;stroke-linejoin:round;stroke-miterlimit:4;stroke-dasharray:none;stroke-dashoffset:0;stroke-opacity:1"
       d="m 94.749513,57.560213 c 2.85246,2.789263 23.546787,22.551348 27.137227,25.91475 1.67864,1.572494 3.28533,3.213929 3.57044,3.647635 0.67494,1.026739 0.78598,2.543603 0.27587,3.768747 -0.38436,0.923132 -0.84471,1.406708 -8.09645,8.504924 -4.22893,4.139381 -10.63533,10.439811 -14.23646,14.000961 -6.914127,6.83738 -8.132449,9.17197 -10.088159,9.10514 -2.147934,-0.0734 -2.590418,-0.4715 -6.708428,-1.73828 -4.21457,-1.29648 -7.724,-2.56939 -8.24296,-2.98983 -0.18611,-0.15081 -0.35898,-0.52083 -0.38413,-0.82231 -0.0449,-0.53807 0.0203,-0.59699 3.54252,-3.20371 9.58784,-7.09582 22.249107,-16.312811 26.940717,-19.611991 3.36008,-2.362818 5.36511,-3.886185 5.62733,-4.275495 0.917,-1.361447 0.76251,-2.403 -0.50926,-3.433332 -0.45153,-0.365806 -3.25049,-1.965636 -6.2199,-3.555178 -8.180697,-4.379179 -16.421567,-8.721688 -19.633997,-10.346117 -3.08808,-1.561541 -5.070973,-3.299003 -5.98321,-4.263711 -1.142866,-1.208602 -1.10392,-2.272669 -0.78795,-3.054927 1.036609,-2.566374 4.66839,-9.621855 5.87477,-10.863234 0.75606,-0.777993 1.376002,-1.533231 2.616642,-1.097191 1.52334,0.535386 3.014948,2.073455 5.305388,4.313149 z"
       id="path1026"
       sodipodi:nodetypes="sssssssssscssssssssss" />
    <path
       style="fill:#01aba8;fill-opacity:1;stroke:none;stroke-width:0.264583px;stroke-linecap:butt;stroke-linejoin:miter;stroke-opacity:1"
       d="m 85.055195,77.007387 c 0,0 1.413202,-2.939278 2.98252,-5.547397 1.510484,-2.510341 4.882661,-3.31192 6.236466,-3.235441 3.591931,0.202917 10.587119,0.977661 10.587119,0.977661 0,0 5.74388,0.56464 3.59731,4.286871 -2.9555,5.124953 -30.056078,44.690889 -32.778148,46.424699 -2.72208,1.7338 -12.00407,2.35643 -9.77817,-2.09996 2.2259,-4.45639 19.152903,-40.806433 19.152903,-40.806433 z"
       id="path1028"
       sodipodi:nodetypes="csscsssc" />
    <path
       style="fill:#01aba8;fill-opacity:1;stroke:none;stroke-width:0.264583px;stroke-linecap:butt;stroke-linejoin:miter;stroke-opacity:1"
       d="m 72.134414,123.1416 c 3.620126,0.32141 5.130901,2.41454 3.772723,4.52726 -1.35818,2.11272 -6.200831,3.21883 -7.696351,3.4709 -3.679408,0.62017 -5.024706,-1.0529 -5.1309,-2.71636 0.07251,-5.06065 7.072536,-5.42447 9.054528,-5.2818 z"
       id="path1059"
       sodipodi:nodetypes="csscc" />
  </g>
</svg>
